<?xml version="1.0" standalone="no"?>
<!DOCTYPE svg PUBLIC "-//W3C//DTD SVG 20010904//EN"
 "http://www.w3.org/TR/2001/REC-SVG-20010904/DTD/svg10.dtd">
<svg version="1.0" xmlns="http://www.w3.org/2000/svg"
 width="700.000000pt" height="700.000000pt" viewBox="0 0 700.000000 700.000000"
 preserveAspectRatio="xMidYMid meet">
<metadata>
Created by potrace 1.11, written by Peter Selinger 2001-2013
</metadata>
<g transform="translate(0.000000,700.000000) scale(0.100000,-0.100000)"
fill="#000000" stroke="none">
<path d="M3230 6989 c-750 -61 -1448 -351 -2015 -839 -126 -109 -344 -335
-448 -465 -799 -1000 -988 -2363 -491 -3545 319 -759 919 -1398 1664 -1771
370 -185 759 -299 1205 -351 142 -16 568 -16 710 0 446 52 835 166 1205 351
921 461 1596 1306 1839 2301 195 799 101 1648 -263 2380 -170 342 -361 612
-626 884 -410 421 -858 702 -1410 886 -437 146 -920 205 -1370 169z m550 -169
c604 -54 1167 -260 1650 -606 714 -511 1198 -1273 1349 -2124 38 -216 46 -319
46 -595 0 -321 -19 -492 -85 -771 -297 -1256 -1322 -2241 -2596 -2493 -234
-46 -337 -55 -644 -55 -307 0 -410 9 -644 55 -1185 234 -2151 1093 -2526 2244
-115 354 -155 626 -154 1040 0 290 10 401 55 629 286 1451 1503 2544 2977
2675 130 12 442 12 572 1z"/>
<path d="M3960 6325 c-137 -39 -227 -134 -260 -274 -36 -154 53 -329 202 -396
248 -112 523 78 505 348 -15 221 -236 380 -447 322z m193 -185 c82 -56 109
-157 67 -246 -82 -169 -340 -122 -358 66 -8 83 34 154 113 192 53 25 131 20
178 -12z"/>
<path d="M1920 5714 c-170 -74 -209 -295 -73 -415 51 -44 98 -61 169 -61 227
-1 329 285 155 433 -67 58 -174 76 -251 43z m160 -184 c29 -54 -10 -130 -65
-130 -34 0 -85 50 -85 83 0 31 34 75 63 79 32 5 76 -11 87 -32z"/>
<path d="M4684 5491 c-93 -42 -136 -165 -91 -256 15 -31 59 -75 91 -92 15 -8
52 -15 81 -15 99 -1 182 71 192 167 17 148 -136 258 -273 196z m106 -171 c0
-24 -26 -38 -42 -22 -16 16 -2 42 22 42 13 0 20 -7 20 -20z"/>
<path d="M1605 4502 c-96 -46 -140 -154 -100 -249 20 -48 41 -71 85 -93 82
-42 154 -33 220 26 91 82 81 233 -19 300 -53 35 -132 41 -186 16z m100 -177
c0 -30 -39 -27 -43 3 -3 20 0 23 20 20 15 -2 23 -10 23 -23z"/>
<path d="M3115 4508 c-87 -16 -191 -73 -260 -143 -223 -223 -200 -592 49 -781
76 -58 131 -82 227 -102 247 -51 503 100 590 348 30 86 33 238 5 320 -88 262
-340 410 -611 358z m257 -187 c75 -36 134 -94 170 -169 30 -60 33 -75 33 -157
0 -77 -4 -98 -27 -147 -34 -73 -103 -142 -176 -176 -49 -23 -70 -27 -147 -27
-77 0 -98 4 -145 26 -78 37 -131 87 -171 161 -32 60 -34 68 -34 163 0 89 3
105 27 151 50 95 116 155 208 188 65 24 199 17 262 -13z"/>
<path d="M5895 3783 c-70 -37 -105 -95 -105 -173 0 -119 90 -199 211 -188 104
10 176 97 167 203 -9 106 -85 175 -193 174 -27 0 -63 -7 -80 -16z m103 -167
c6 -29 -15 -43 -35 -24 -14 14 -14 20 -3 33 16 19 34 15 38 -9z"/>
<path d="M3923 3010 c-86 -52 -82 -189 6 -235 17 -8 51 -15 77 -15 41 0 51 5
85 39 35 34 39 44 39 87 0 61 -16 92 -59 121 -43 29 -104 30 -148 3z m101
-105 c3 -8 -2 -21 -10 -29 -20 -20 -44 -9 -44 20 0 19 5 24 24 24 13 0 26 -7
30 -15z"/>
<path d="M954 2971 c-87 -22 -164 -85 -210 -171 -29 -54 -27 -200 4 -257 35
-66 79 -110 140 -140 48 -24 69 -28 137 -28 67 0 88 5 131 27 28 15 70 48 92
73 132 150 78 396 -104 476 -48 22 -145 32 -190 20z m137 -184 c79 -53 87
-141 18 -210 -38 -38 -41 -39 -96 -35 -49 4 -60 9 -90 41 -42 46 -48 115 -15
165 40 62 123 79 183 39z"/>
<path d="M5198 2575 c-84 -23 -142 -57 -209 -124 -122 -123 -166 -282 -124
-446 75 -285 390 -432 653 -304 272 132 352 476 166 712 -111 141 -315 209
-486 162z m250 -179 c54 -28 112 -86 140 -140 37 -72 38 -189 3 -260 -31 -63
-84 -116 -147 -147 -73 -36 -178 -34 -256 4 -228 112 -225 433 6 544 44 21 62
24 136 20 55 -2 97 -9 118 -21z"/>
<path d="M2760 2310 c-236 -33 -437 -219 -486 -449 -55 -261 73 -527 308 -640
142 -67 272 -79 416 -38 424 123 560 651 248 962 -129 128 -311 190 -486 165z
m162 -171 c228 -49 374 -282 314 -504 -31 -117 -113 -217 -221 -270 -56 -28
-68 -30 -175 -30 -105 0 -120 2 -171 28 -161 79 -246 223 -237 403 3 67 10 94
36 146 85 173 270 266 454 227z"/>
<path d="M4512 1429 c-116 -24 -139 -199 -33 -254 82 -42 195 11 201 95 5 60
-1 82 -32 116 -36 39 -84 54 -136 43z m57 -113 c17 -20 2 -48 -23 -44 -24 3
-34 37 -14 49 18 12 24 11 37 -5z"/>
</g>
</svg>
